<?xml version="1.0" encoding="UTF-8" standalone="no"?>
<!-- Uploaded to: SVG Repo, www.svgrepo.com, Generator: SVG Repo Mixer Tools -->

<svg
   width="617.01483"
   height="665.55469"
   viewBox="0 0 789.77898 851.91"
   class="icon"
   version="1.1"
   id="svg10"
   sodipodi:docname="apple-icon.svg"
   inkscape:version="1.4.2 (ebf0e940, 2025-05-08)"
   xmlns:inkscape="http://www.inkscape.org/namespaces/inkscape"
   xmlns:sodipodi="http://sodipodi.sourceforge.net/DTD/sodipodi-0.dtd"
   xmlns="http://www.w3.org/2000/svg"
   xmlns:svg="http://www.w3.org/2000/svg">
  <defs
     id="defs10" />
  <sodipodi:namedview
     id="namedview10"
     pagecolor="#ffffff"
     bordercolor="#000000"
     borderopacity="0"
     inkscape:showpageshadow="2"
     inkscape:pageopacity="0.0"
     inkscape:pagecheckerboard="true"
     inkscape:deskcolor="#d1d1d1"
     inkscape:zoom="0.88590747"
     inkscape:cx="364.5979"
     inkscape:cy="333.55628"
     inkscape:window-width="1496"
     inkscape:window-height="828"
     inkscape:window-x="7"
     inkscape:window-y="46"
     inkscape:window-maximized="0"
     inkscape:current-layer="svg10" />
  <g
     id="g1"
     transform="matrix(0.78121497,0,0,0.78121497,92.470154,87.476231)">
    <path
       d="m 420.12984,155.65 c 210.2,-42.94 322.79,28.73 346.37,214 14.27,183.15 -16.11,461.76 -327.11,461.76 q -35.73,-0.9 -108.27,0 C 54.469838,803.65 8.5398375,552.8 22.819838,369.65 c 23.57,-185.27 136.170002,-256.94 346.370002,-214 5.86,1.49 15.78,1.55 20.37,0 14.83,1.54 24.71,1.48 30.57,0 z"
       fill="#ffffff"
       id="path1"
       style="fill:#418500;fill-opacity:1" />
    <path
       d="m 761.83984,340.29 q 2.73,14.16 4.66,29.34 c 14.27,183.17 -16.11,461.78 -327.11,461.78 q -35.73,-0.9 -108.27,0 c -88.34,-8.86 -153.15,-40.47 -200,-85.36 -20.43,-72.24 -23.51,-150.22 -18.17,-218.74 23.58,-185.26 136.17,-256.93 346.37,-214 5.86,1.49 15.78,1.55 20.37,0 14.78,1.55 24.7,1.49 30.56,0 110.33,-22.54 193.77,-13.5 251.57,27 z"
       fill="#FFC6C6"
       id="path2"
       style="fill:#3c7a00;fill-opacity:1" />
    <path
       d="m 563.81984,145.31 c 118.81,12.08 185.2,87 202.68,224.32 14.27,183.17 -16.11,461.78 -327.11,461.78 q -35.73,-0.9 -108.27,0 c -58,-5.82 -105.92,-21.46 -145.22,-44.24 223.8,24.26 333.76,-44.77 395.87,-262.59 32.82,-115.12 28.75,-256 -18,-379.27 z"
       fill="#FF9368"
       id="path3"
       style="fill:#005c00;fill-opacity:1" />
    <path
       d="m 281.97984,240.11 a 135.21,61.95 0 1 0 270.42,0 135.21,61.95 0 1 0 -270.42,0 z"
       fill="#FFC6C6"
       id="path4"
       style="fill:#3c7a00;fill-opacity:1" />
    <path
       d="m 330.22984,851.91 -1.15,-0.12 c -68.87,-6.91 -128.3,-27.68 -176.65,-61.74 -43.04,-30.4 -77.700002,-71.4 -102.900002,-122.13 C -0.84016247,566.58 -3.9001625,448.92 2.3998375,368.05 l 0.1,-1 c 5.83,-45.76 17.1000005,-85.6 33.5200005,-118.42 17,-33.9 39.88,-61.34 68.110002,-81.56 31.69,-22.69 70.78,-36.75 116.17,-41.8 44.05,-4.9 95.52,-1.43 153,10.31 l 0.93,0.21 a 31.48,31.48 0 0 0 9.21,0.31 l 3.82,-1.29 4.45,0.47 c 17.13,1.79 22.49,0.75 23.4,0.52 l 0.93,-0.21 c 57.46,-11.74 108.94,-15.21 153,-10.31 45.39,5 84.47,19.11 116.17,41.8 28.18,20.21 51.13,47.65 68.09,81.57 16.41,32.81 27.69,72.65 33.52,118.42 l 0.1,1 c 9.32,119.51 0.32,283.71 -95.45,387.23 -59.31,64.09 -144.08,96.59 -252.08,96.59 h -0.52 c -23.45,-0.59 -59.62,-0.59 -107.5,0 z m 64.16,-41.42 c 18.15,0 33.27,0.15 45.25,0.45 50.49,0 95.42,-7.82 133.56,-23.18 34.28,-13.8 63.95,-34.09 88.19,-60.3 47.27,-51.1 100.32,-154.3 84.72,-355.73 -5.26,-41 -15.17,-76.21 -29.45,-104.77 -13.94,-27.88 -32.56,-50.31 -55.27,-66.58 -25.92,-18.56 -58.51,-30.13 -96.85,-34.4 -39.7,-4.42 -86.76,-1.17 -139.87,9.65 -8,1.92 -18.5,2.15 -33.69,0.73 a 70,70 0 0 1 -26.22,-0.73 c -53.12,-10.82 -100.18,-14.07 -139.88,-9.65 -38.34,4.26 -70.93,15.84 -96.85,34.4 -22.76,16.3 -41.380002,38.7 -55.330002,66.58 -14.29,28.56 -24.2,63.81 -29.45,104.77 -3.8,49.11 -2.73,96.45 3.17,140.73 6.89,51.73 20.3,97.9 39.85,137.23 47.260002,95.07 130.000002,149.31 245.830002,161.24 23.58,-0.28 44.41,-0.44 62.29,-0.44 z"
       fill=""
       id="path5"
       style="stroke-width:0.10368;stroke-dasharray:none" />
    <path
       d="m 392.97984,288.91 c -36.82,0 -73.57,-14.47 -109.24,-43 a 22.53,22.53 0 1 1 28.15,-35.18 c 55.32,44.27 106.86,44.27 162.18,0 a 22.53,22.53 0 1 1 28.15,35.18 c -35.66,28.53 -72.42,43 -109.24,43 z"
       fill=""
       id="path6" />
    <path
       d="m 394.66984,264.24 a 22.55,22.55 0 0 1 -21.66,-28.77 c 32.47,-112.64 71.48,-185.13 119.27,-221.62 a 22.53,22.53 0 1 1 27.35,35.8 c -39.27,30 -74,96.71 -103.32,198.29 a 22.54,22.54 0 0 1 -21.64,16.3 z"
       fill=""
       id="path7"
       style="stroke-width:0.23168;stroke-dasharray:none" />
    <path
       d="m 289.13984,178.17 q 87.12,0 157.75,-78.84 -70.63,-78.84 -157.75,-78.84 -87.12,0 -157.75,78.84 70.62,78.84 157.75,78.84 z"
       fill="#89d66d"
       id="path8" />
    <path
       d="m 293.24984,198.65 c -63.88,0 -122.09,-28.82 -173,-85.66 l -12.24,-13.67 12.23,-13.67 c 50.92,-56.84 109.12,-85.65 173,-85.65 63.88,0 122.09,28.82 173,85.65 l 12.24,13.67 -12.24,13.67 c -50.9,56.84 -109.11,85.66 -172.99,85.66 z m -129.48,-99.32 c 17.84,17.55 36.49,31.25 55.63,40.81 a 164.13,164.13 0 0 0 147.69,0 c 19.14,-9.57 37.79,-23.26 55.63,-40.81 -17.84,-17.55 -36.49,-31.25 -55.63,-40.81 a 164.13,164.13 0 0 0 -147.69,0 c -19.13,9.56 -37.79,23.25 -55.63,40.81 z"
       fill=""
       id="path9" />
    <path
       d="m 273.10984,82.81 h 143.35 a 15.36,15.36 0 0 1 15.36,15.36 15.36,15.36 0 0 1 -15.36,15.36 h -143.35 a 15.36,15.36 0 0 1 -15.36,-15.36 15.36,15.36 0 0 1 15.36,-15.36 z"
       fill="#015200"
       id="path10" />
  </g>
</svg>
