<?xml version="1.0" encoding="UTF-8" standalone="no"?>
<!-- Uploaded to: SVG Repo, www.svgrepo.com, Generator: SVG Repo Mixer Tools -->

<svg
   fill="#000000"
   version="1.1"
   id="Capa_1"
   width="328.06534"
   height="627.09338"
   viewBox="0 0 11.763193 22.486001"
   xml:space="preserve"
   sodipodi:docname="olive-branch.svg"
   inkscape:version="1.4.2 (ebf0e940, 2025-05-08)"
   xmlns:inkscape="http://www.inkscape.org/namespaces/inkscape"
   xmlns:sodipodi="http://sodipodi.sourceforge.net/DTD/sodipodi-0.dtd"
   xmlns="http://www.w3.org/2000/svg"
   xmlns:svg="http://www.w3.org/2000/svg"><defs
   id="defs24">
	

		
		
	</defs><sodipodi:namedview
   id="namedview24"
   pagecolor="#ffffff"
   bordercolor="#000000"
   borderopacity="0.25"
   inkscape:showpageshadow="2"
   inkscape:pageopacity="0.0"
   inkscape:pagecheckerboard="0"
   inkscape:deskcolor="#d1d1d1"
   inkscape:zoom="0.32662872"
   inkscape:cx="39.800541"
   inkscape:cy="561.79995"
   inkscape:window-width="1496"
   inkscape:window-height="828"
   inkscape:window-x="7"
   inkscape:window-y="46"
   inkscape:window-maximized="0"
   inkscape:current-layer="Capa_1" />
<g
   id="g11"
   style="fill:#286400;fill-opacity:1"
   transform="translate(-8.9665001e-4,-3.108)">
			<path
   d="m 3.136,11.14 c 0,0 0.886,-1.142 0.313,-2.728 C 2.874,6.827 1.535,6.225 1.535,6.225 c 0,0 -1.002,1.361 -0.442,2.906 0.559,1.546 2.043,2.009 2.043,2.009 z"
   id="path1"
   style="fill:#286400;fill-opacity:1" />
			<path
   d="m 5.595,11.951 c 0,0 1.549,-0.124 2.436,-1.509 C 8.918,9.058 8.24,7.51 8.24,7.51 c 0,0 -1.438,0.292 -2.349,1.713 -0.91,1.42 -0.296,2.728 -0.296,2.728 z"
   id="path2"
   style="fill:#286400;fill-opacity:1" />
			<path
   d="m 5.752,13.781 c -0.717,1.527 0.062,2.745 0.062,2.745 0,0 1.521,-0.326 2.219,-1.813 0.697,-1.489 -0.177,-2.935 -0.177,-2.935 0,0 -1.387,0.476 -2.104,2.003 z"
   id="path3"
   style="fill:#286400;fill-opacity:1" />
			<path
   d="m 9.253,15.011 c 0,0 -1.337,0.606 -1.907,2.192 -0.57,1.589 0.319,2.727 0.319,2.727 0,0 1.482,-0.467 2.038,-2.014 0.555,-1.547 -0.45,-2.905 -0.45,-2.905 z"
   id="path4"
   style="fill:#286400;fill-opacity:1" />
			<path
   d="m 10.367,23.363 c 0,0 1.286,-0.875 1.373,-2.516 0.086,-1.642 -1.269,-2.652 -1.269,-2.652 0,0 -1.106,0.965 -1.195,2.649 -0.088,1.683 1.091,2.519 1.091,2.519 z"
   id="path5"
   style="fill:#286400;fill-opacity:1" />
			<path
   d="m 5.111,8.084 c 0,0 1.371,-0.458 1.773,-2.095 C 7.287,4.352 6.508,3.108 6.508,3.108 c 0,0 -1.588,0.576 -1.981,2.173 -0.392,1.596 0.584,2.803 0.584,2.803 z"
   id="path6"
   style="fill:#286400;fill-opacity:1" />
			<path
   d="m 3.135,14.621 c 0,0 0.509,-1.353 -0.506,-2.698 -1.017,-1.346 -2.473,-1.527 -2.473,-1.527 0,0 -0.556,1.596 0.434,2.908 0.99,1.313 2.545,1.317 2.545,1.317 z"
   id="path7"
   style="fill:#286400;fill-opacity:1" />
			<path
   d="m 4.271,18.191 c 0,0 0.195,-1.432 -1.093,-2.518 -1.29,-1.087 -2.75,-0.939 -2.75,-0.939 0,0 -0.188,1.68 1.068,2.739 1.258,1.058 2.775,0.718 2.775,0.718 z"
   id="path8"
   style="fill:#286400;fill-opacity:1" />
			<path
   d="m 6.001,21.143 c 0,0 -0.245,-1.424 -1.803,-2.068 -1.559,-0.646 -2.905,-0.063 -2.905,-0.063 0,0 0.33,1.658 1.848,2.288 1.518,0.627 2.86,-0.157 2.86,-0.157 z"
   id="path9"
   style="fill:#286400;fill-opacity:1" />
			<path
   d="m 6.757,22.369 c -1.624,-0.454 -2.892,0.285 -2.892,0.285 0,0 0.525,1.606 2.107,2.049 1.584,0.443 2.822,-0.496 2.822,-0.496 0,0 -0.413,-1.385 -2.037,-1.838 z"
   id="path10"
   style="fill:#286400;fill-opacity:1" />
			<path
   d="M 5.28,9.06 4.558,8.705 C 4.52,8.784 0.806,16.673 11.242,25.594 l 0.522,-0.611 C 1.828,16.488 5.134,9.359 5.28,9.06 Z"
   id="path11"
   style="fill:#286400;fill-opacity:1" />
		</g>
</svg>
